<svg width="40" height="40" viewBox="0 0 40 40" fill="none" xmlns="http://www.w3.org/2000/svg">
    <path d="M12.4 12L6.8 17.6L12.4 23.2"
          stroke="#6C707E"
          stroke-width="2.8"
          stroke-linecap="round"
          stroke-linejoin="round"/>
    <path d="M27.6 12L33.2 17.6L27.6 23.2"
          stroke="#6C707E"
          stroke-width="2.8"
          stroke-linecap="round"
          stroke-linejoin="round"/>
    <rect x="12" y="9" width="16" height="19"
          rx="3"
          fill="#40B6E0"/>
    <rect x="15" y="13" width="10" height="2"
          rx="1"
          fill="white"
          fill-opacity="0.92"/>
    <rect x="15" y="18" width="8" height="2"
          rx="1"
          fill="white"
          fill-opacity="0.92"/>
    <rect x="15" y="23" width="6" height="2"
          rx="1"
          fill="white"
          fill-opacity="0.92"/>
    <circle cx="27" cy="27" r="7.25"
            fill="#2BA84A"
            stroke="#FFFFFF"
            stroke-width="1.5"/>
    <path d="M22.5 27H31.5"
          stroke="#FFFFFF"
          stroke-width="1.4"
          stroke-linecap="round"/>
    <path d="M27 22.5V31.5"
          stroke="#FFFFFF"
          stroke-width="1.4"
          stroke-linecap="round"/>
    <path d="M24.25 23.1C25.4 24.05 26 25.42 26 27C26 28.58 25.4 29.95 24.25 30.9"
          stroke="#FFFFFF"
          stroke-width="1.1"
          stroke-linecap="round"
          opacity="0.82"/>
    <path d="M29.75 23.1C28.6 24.05 28 25.42 28 27C28 28.58 28.6 29.95 29.75 30.9"
          stroke="#FFFFFF"
          stroke-width="1.1"
          stroke-linecap="round"
          opacity="0.82"/>
</svg>
